:SAMPLES-PER-SECOND 30
:FRAME-RANGE 1-744
:FULLY-SPECIFIED
:DEGREES
582
root  -112.435 39.1324 38.6292 171.189 6.53467 -175.561
RightUpLeg  -2.99081 15.1607 1.10842
RightLeg  14.5284 -7.49579 -2.82854
RightFoot  -6.84533 -0.514971 11.8877
RightToes  5.82063e-011 0 -3.6325e-017
Spine  11.7766 0.553621 0.157904
Spine1  -0.49387 1.32123 -5.49754
HEad  -5.76584 -49.9802 -0.855555
LeftShoulder1  3.2498 -4.35638 -35.3086
LeftArm  23.7229 -5.02535 -24.3598
LeftForeArm  -10.6232 -12.7153 -14.4568
LeftHand  -1.36414 -5.78673 14.4222
RightShoulder  6.5538 4.31025 70.6597
RightArm  38.2771 1.0788 -2.49287
RightForeArm  3.15391 17.4635 8.47159
RightHand  1.09583 21.5063 4.17825
LeftUpLeg  16.2439 8.89475 6.51149
LeftLeg  -1.45762 -1.51234 -0.0409111
LeftFoot  -7.51054 -0.127689 5.16798
LeftToes  1.25507e-010 -3.78807e-010 5.71421e-011
583
root  -112.334 39.1156 38.2634 171.539 7.90663 -175.284
RightUpLeg  -3.98068 12.232 0.727545
RightLeg  11.9702 -5.22107 -2.90133
RightFoot  -6.18888 -0.578231 11.8718
RightToes  5.82063e-011 0 -3.6325e-017
Spine  12.0793 0.375986 0.574281
Spine1  -0.544301 1.26095 -5.70184
HEad  -7.08425 -49.2932 -0.172103
LeftShoulder1  3.2931 -4.35311 -35.8643
LeftArm  22.426 -2.53269 -24.9172
LeftForeArm  -9.82969 -11.9817 -14.8523
LeftHand  -1.30681 -5.89123 13.7129
RightShoulder  7.27102 5.22142 70.2907
RightArm  39.1229 2.03454 -1.94659
RightForeArm  1.30492 20.7763 5.90632
RightHand  1.02874 21.5568 3.88338
LeftUpLeg  16.8387 8.85899 6.73995
LeftLeg  -1.68696 -0.0121287 0.158019
LeftFoot  -8.01092 -0.0870203 4.65065
LeftToes  1.25507e-010 -3.78807e-010 5.71421e-011
584
root  -112.199 39.0835 37.853 171.867 9.00197 -175.084
RightUpLeg  -4.45653 7.75699 0.44138
RightLeg  8.25762 -2.34541 -3.42268
RightFoot  -5.17719 -0.650115 11.3817
RightToes  5.82063e-011 0 -3.6325e-017
Spine  12.3851 0.312502 0.810543
Spine1  -0.75948 1.22988 -5.55283
HEad  -7.81378 -48.9094 -0.0433179
LeftShoulder1  3.34858 -4.34678 -36.585
LeftArm  19.9093 -0.459713 -25.6793
LeftForeArm  -8.18432 -10.6019 -15.5198
LeftHand  -1.22961 -5.78035 13.0507
RightShoulder  7.66945 5.77623 69.8207
RightArm  36.9292 3.0437 -1.76101
RightForeArm  2.53458 23.3773 4.90522
RightHand  1.01155 21.8455 3.76226
LeftUpLeg  17.5033 8.83394 6.92979
LeftLeg  -1.91991 1.34685 0.337782
LeftFoot  -8.50932 -0.0579466 4.41499
LeftToes  1.25507e-010 -3.78807e-010 5.71421e-011
585
root  -112.018 39.0334 37.4011 172.201 9.98227 -175.105
RightUpLeg  -4.58769 3.14594 -0.0596774
RightLeg  3.62769 -0.479804 -3.80826
RightFoot  -3.60585 -0.758463 10.8235
RightToes  5.82063e-011 0 -3.6325e-017
Spine  12.3342 0.260411 1.12659
Spine1  -0.65471 1.30606 -5.81367
HEad  -8.00655 -48.7101 -0.202723
LeftShoulder1  3.36676 -4.32368 -36.9321
LeftArm  17.4428 1.46478 -26.7007
LeftForeArm  -5.92114 -9.45702 -15.9005
LeftHand  -1.2296 -5.69035 13.1516
RightShoulder  8.01102 6.24982 69.4706
RightArm  32.7353 3.73797 -1.55651
RightForeArm  5.65957 25.3323 5.13513
RightHand  0.897951 21.8593 3.28151
LeftUpLeg  18.1917 8.76315 6.96843
LeftLeg  -2.11418 2.42922 0.444514
LeftFoot  -9.12482 -0.0196897 3.85538
LeftToes  1.25507e-010 -3.78807e-010 5.71421e-011
586
root  -111.775 38.9344 36.8917 172.519 10.9247 -175.282
RightUpLeg  -4.50977 1.01642 -0.903674
RightLeg  -1.00386 -2.57136 -3.29697
RightFoot  -1.92746 -0.85653 10.2168
RightToes  5.82063e-011 0 -3.6325e-017
Spine  12.3306 0.326085 1.41835
Spine1  -0.896561 1.50864 -6.2547
HEad  -8.01662 -48.5186 -0.210991
LeftShoulder1  3.37508 -4.28213 -37.257
LeftArm  17.846 3.56307 -27.7064
LeftForeArm  -5.88884 -9.89301 -15.6476
LeftHand  -1.20711 -5.48963 13.1458
RightShoulder  8.26201 6.57462 69.3634
RightArm  29.9406 4.16388 -1.69199
RightForeArm  6.84205 26.8708 5.42096
RightHand  0.608941 21.2465 2.12667
LeftUpLeg  18.7101 8.65346 6.85465
LeftLeg  -1.78421 3.6334 0.633509
LeftFoot  -10.0589 0.0257054 3.10821
LeftToes  1.25507e-010 -3.78807e-010 5.71421e-011
587
root  -111.455 38.7882 36.3286 172.706 11.7103 -175.677
RightUpLeg  -4.52464 0.135876 -1.84168
RightLeg  -4.56391 -6.18566 -2.3183
RightFoot  -0.779034 -0.894943 9.60261
RightToes  5.82063e-011 0 -3.6325e-017
Spine  12.0457 0.381906 1.51255
Spine1  -0.897406 1.72803 -6.95676
HEad  -7.53502 -48.335 -0.56656
LeftShoulder1  3.36302 -4.23528 -37.3595
LeftArm  17.1102 5.29013 -28.7022
LeftForeArm  -4.76819 -10.0493 -15.4277
LeftHand  -1.20815 -5.52631 13.1146
RightShoulder  8.48407 6.8351 69.4208
RightArm  28.4696 4.47826 -1.64776
RightForeArm  7.97912 27.5231 5.51021
RightHand  0.705096 21.8517 2.46976
LeftUpLeg  19.239 8.68842 6.75918
LeftLeg  -1.01931 4.46743 0.753062
LeftFoot  -11.2758 0.0664027 2.38674
LeftToes  1.25507e-010 -3.78807e-010 5.71421e-011
588
root  -111.068 38.6205 35.7249 172.934 12.4595 -176.086
RightUpLeg  -4.9855 -0.130683 -2.42634
RightLeg  -6.45472 -9.99125 -1.61453
RightFoot  -0.707834 -0.839056 8.9464
RightToes  5.82063e-011 0 -3.6325e-017
Spine  11.7769 0.487283 1.58878
Spine1  -1.13664 1.96382 -7.56798
HEad  -6.84555 -47.8199 -1.11004
LeftShoulder1  3.35269 -4.16003 -37.6401
LeftArm  17.5046 7.12777 -29.3139
LeftForeArm  -4.73002 -11.0693 -14.7881
LeftHand  -1.25188 -5.65438 13.4236
RightShoulder  8.60691 6.99059 69.3901
RightArm  27.9557 4.50649 -1.31839
RightForeArm  8.22914 27.2713 5.4383
RightHand  0.672487 21.9257 2.32412
LeftUpLeg  19.7629 8.88686 6.88356
LeftLeg  -0.112255 5.066 0.77102
LeftFoot  -12.68 0.0943456 1.55748
LeftToes  1.25507e-010 -3.78807e-010 5.71421e-011
589
root  -110.627 38.445 35.0687 173.176 13.0185 -176.541
RightUpLeg  -4.83035 -0.174276 -2.73865
RightLeg  -8.43938 -13.0682 -1.04677
RightFoot  -0.98334 -0.751457 8.20268
RightToes  5.82063e-011 0 -3.6325e-017
Spine  11.2883 0.707496 1.62899
Spine1  -1.18701 2.2647 -7.95923
HEad  -5.52751 -47.0992 -1.97725
LeftShoulder1  3.37644 -4.19992 -37.7193
LeftArm  18.7108 8.3117 -29.8826
LeftForeArm  -5.40826 -11.884 -14.3378
LeftHand  -1.29648 -5.52567 14.0425
RightShoulder  8.5787 6.88184 69.793
RightArm  28.5903 4.73421 -1.43995
RightForeArm  7.32881 26.111 5.22157
RightHand  0.5745 21.9494 1.90989
LeftUpLeg  20.6258 8.91941 6.96753
LeftLeg  0.162977 5.38426 0.856632
LeftFoot  -13.7831 0.0936651 0.513589
LeftToes  1.25507e-010 -3.78807e-010 5.71421e-011
590
root  -110.14 38.2968 34.3868 173.334 13.3586 -176.962
RightUpLeg  -4.24207 -0.420728 -2.94437
RightLeg  -9.60823 -14.3141 -0.575575
RightFoot  -0.557845 -0.747328 7.86524
RightToes  5.82063e-011 0 -3.6325e-017
Spine  10.8718 0.818855 1.77475
Spine1  -1.11004 2.38293 -7.94279
HEad  -4.0569 -45.5216 -3.14304
LeftShoulder1  3.3625 -4.15461 -37.7932
LeftArm  19.5342 9.18 -30.357
LeftForeArm  -5.57174 -12.4161 -14.0186
LeftHand  -1.30864 -5.65969 14.0059
RightShoulder  8.5211 6.80482 69.8327
RightArm  29.8826 4.38164 -1.37308
RightForeArm  5.70195 24.953 5.04835
RightHand  0.51498 21.7583 1.67622
LeftUpLeg  21.9057 8.88249 7.11332
LeftLeg  -0.189913 5.65704 0.954583
LeftFoot  -14.567 0.0740203 -0.474569
LeftToes  1.25507e-010 -3.78807e-010 5.71421e-011
591
root  -109.621 38.253 33.686 173.447 13.3179 -176.88
RightUpLeg  -3.25622 -0.35282 -2.53606
RightLeg  -10.1281 -15.3008 -0.443484
RightFoot  4.46616 -1.14064 8.42269
RightToes  5.82063e-011 0 -3.6325e-017
Spine  10.5928 0.725792 2.81564
Spine1  -0.811233 2.38029 -7.78344
HEad  -2.13359 -42.2562 -4.68684
LeftShoulder1  3.3452 -4.12483 -37.7397
LeftArm  20.5354 9.49213 -30.5974
LeftForeArm  -5.69397 -12.6118 -13.9467
LeftHand  -1.30482 -5.64604 13.9829
RightShoulder  8.3711 6.53429 70.3319
RightArm  32.1196 4.13602 -1.67137
RightForeArm  2.95805 23.2562 4.87773
RightHand  0.539572 21.9096 1.7667
LeftUpLeg  24.0701 8.90683 8.08169
LeftLeg  -2.15362 5.23807 0.8672
LeftFoot  -14.2994 0.042868 -1.66061
LeftToes  1.25507e-010 -3.78807e-010 5.71421e-011
592
root  -109.029 38.2664 32.9849 173.368 13.2626 -176.528
RightUpLeg  -1.94116 -0.010632 -1.54082
RightLeg  -11.19 -16.12 -0.225676
RightFoot  11.3825 -1.37789 7.24016
RightToes  5.82063e-011 0 -3.6325e-017
Spine  10.8254 0.672985 3.75015
Spine1  -0.896309 2.33216 -7.06728
HEad  -0.0890939 -35.6122 -5.89093
LeftShoulder1  3.32429 -4.03318 -37.9848
LeftArm  21.6536 9.28293 -30.3939
LeftForeArm  -5.86313 -12.6333 -14.0164
LeftHand  -1.29263 -5.66737 13.8309
RightShoulder  8.06265 6.15095 70.4101
RightArm  32.5427 3.96112 -1.37747
RightForeArm  2.24358 20.3158 6.04995
RightHand  0.49902 21.7314 1.61094
LeftUpLeg  26.2559 8.99321 9.60717
LeftLeg  -3.62822 4.32151 1.00557
LeftFoot  -13.6964 0.00674843 -3.66405
LeftToes  1.25507e-010 -3.78807e-010 5.71421e-011
